<svg preserveAspectRatio="none" width="100%" height="100%" overflow="visible" style="display: block;" viewBox="0 0 17.955 28.14" fill="none" xmlns="http://www.w3.org/2000/svg">
<g id="moderneLogo__text">
<path id="moderneLogo__text-1" fill-rule="evenodd" clip-rule="evenodd" d="M0.384156 5.775H17.9272C17.9272 5.775 18.8114 -0.85388 10.5982 2.00295C7.37441 3.12345 5.88162 -0.993586 2.72668 0.22955C-1.40144 1.83189 0.384156 5.775 0.384156 5.775Z" fill="var(--fill-0, #DE9CD7)"/>
<path id="moderneLogo__text-2" fill-rule="evenodd" clip-rule="evenodd" d="M12.6452 12.9319C12.7262 12.4187 12.8371 11.9105 12.9775 11.41C13.3964 9.93686 8.49937 10.0429 6.87858 10.4442C5.76916 10.7308 6.14186 11.9317 6.52033 12.694C2.92237 14.0066 0.760966 17.6586 1.35894 21.415C1.95692 25.1715 5.14756 27.9851 8.97815 28.1338C12.8087 28.2826 16.2114 25.7251 17.1035 22.0266C17.9957 18.328 16.1288 14.5195 12.6452 12.9319Z" fill="var(--fill-0, #DE9CD7)"/>
<path id="moderneLogo__text-3" fill-rule="evenodd" clip-rule="evenodd" d="M15.435 6.35892C15.435 7.17259 14.7535 6.67354 13.9125 6.67354C13.0715 6.67354 12.39 7.17259 12.39 6.35892C12.39 5.8502 12.6802 5.38013 13.1512 5.12577C13.6223 4.87141 14.2027 4.87141 14.6737 5.12577C15.1448 5.38013 15.435 5.8502 15.435 6.35892Z" fill="var(--fill-0, #212126)"/>
<path id="moderneLogo__text-4" fill-rule="evenodd" clip-rule="evenodd" d="M11.8649 12.2738C11.8695 12.572 11.6933 12.8435 11.4191 12.9608C11.1448 13.0781 10.8268 13.018 10.6143 12.8087C10.4018 12.5994 10.3368 12.2824 10.4499 12.0064C10.563 11.7304 10.8316 11.55 11.1299 11.55C11.5321 11.5484 11.8603 11.8716 11.8649 12.2738Z" fill="var(--fill-0, #212126)"/>
<path id="moderneLogo__text-5" fill-rule="evenodd" clip-rule="evenodd" d="M9.3445 12.4036C9.3087 12.828 8.94137 13.1471 8.51542 13.1238C8.08947 13.1004 7.75932 12.7431 7.77026 12.3173C7.78121 11.8915 8.12927 11.5515 8.55586 11.55C9.00848 11.5708 9.36009 11.9514 9.3445 12.4036Z" fill="var(--fill-0, #212126)"/>
<path id="moderneLogo__text-6" fill-rule="evenodd" clip-rule="evenodd" d="M5.985 5.9325C5.985 6.65737 5.39737 7.245 4.6725 7.245C3.94763 7.245 3.36 6.65737 3.36 5.9325C3.36 5.20763 3.94763 4.62 4.6725 4.62C5.39737 4.62 5.985 5.20763 5.985 5.9325Z" fill="var(--fill-0, #212126)"/>
<path id="moderneLogo__text-7" fill-rule="evenodd" clip-rule="evenodd" d="M10.1845 22.9006C10.1503 23.326 9.78299 23.6467 9.3563 23.6239C8.92961 23.601 8.59879 23.2429 8.61029 22.8163C8.62179 22.3897 8.97143 22.0499 9.39873 22.05C9.84971 22.0708 10.2 22.45 10.1845 22.9006Z" fill="var(--fill-0, #212126)"/>
</g>
</svg>
