<svg width="72.7622" height="14.0366" overflow="visible" style="display: block;" viewBox="0 0 72.7622 14.0366" fill="none" xmlns="http://www.w3.org/2000/svg">
<path id="moderneLogo__path" d="M1.7627 13.6748L1.76233 5.50226C1.76064 5.18128 1.75303 4.72178 1.7395 4.12378C1.72404 3.44035 1.71631 2.93164 1.71631 2.59766V2.18018L5.63135 13.6748H7.45898L11.3462 2.18018C11.3462 2.91618 11.34 3.60579 11.3276 4.24902C11.3153 4.89225 11.3091 5.35303 11.3091 5.63135V13.6748H13.0625V0.0463867H10.4463L6.55908 11.5688L2.64404 0.0463867H0V13.6748H1.7627ZM19.436 14.0366C21.075 14.0366 22.2842 13.514 23.0635 12.4688C23.8428 11.4235 24.2324 10.0999 24.2324 8.49805C24.2324 6.84049 23.7902 5.58496 22.9058 4.73145C22.0213 3.87793 20.939 3.45117 19.6587 3.45117C18.23 3.45117 17.092 3.94596 16.2446 4.93555C15.3973 5.92513 14.9736 7.25488 14.9736 8.9248C14.9736 10.4834 15.3757 11.725 16.1797 12.6497C16.9837 13.5743 18.0692 14.0366 19.436 14.0366ZM19.5938 12.5986C18.5856 12.5986 17.8496 12.2461 17.3857 11.541C16.9219 10.8359 16.6899 9.95459 16.6899 8.89697C16.6899 7.79606 16.9219 6.85596 17.3857 6.07666C17.8496 5.29736 18.5918 4.90771 19.6123 4.90771C20.7627 4.90771 21.5729 5.3654 22.043 6.28076C22.3398 6.86214 22.4883 7.6167 22.4883 8.54443C22.4883 9.57113 22.2826 10.5035 21.8713 11.3416C21.46 12.1796 20.7008 12.5986 19.5938 12.5986ZM29.604 14.0273C30.2905 14.0273 30.8997 13.8913 31.4316 13.6191C31.9635 13.347 32.4243 12.9048 32.814 12.2925V13.6748H34.3169V0H32.7119V5.01904C32.3346 4.55518 31.9976 4.23047 31.7007 4.04492C31.1873 3.72331 30.5503 3.5625 29.7896 3.5625C28.4165 3.5625 27.3604 4.09285 26.6213 5.15356C25.8822 6.21427 25.5127 7.46826 25.5127 8.91553C25.5127 10.4618 25.9178 11.7003 26.728 12.6311C27.5382 13.5619 28.4969 14.0273 29.604 14.0273ZM30.1235 12.5708C29.1278 12.5708 28.4041 12.2121 27.9526 11.4946C27.5011 10.7772 27.2754 9.88656 27.2754 8.82275C27.2754 7.57341 27.5367 6.62712 28.0593 5.98389C28.5819 5.34066 29.2638 5.01904 30.105 5.01904C30.8595 5.01904 31.4935 5.32056 32.0068 5.92358C32.5202 6.52661 32.7769 7.45589 32.7769 8.71143C32.7769 9.95459 32.5279 10.9086 32.03 11.5735C31.5321 12.2384 30.8966 12.5708 30.1235 12.5708ZM40.6626 14.0273C41.1698 14.0273 41.6243 13.9779 42.0264 13.8789C42.7747 13.7057 43.4025 13.3717 43.9097 12.877C44.2127 12.5924 44.4864 12.226 44.7307 11.7776C44.975 11.3292 45.1188 10.9225 45.1621 10.5576H43.52C43.3963 10.9967 43.186 11.3833 42.8892 11.7173C42.3696 12.2925 41.6738 12.5801 40.8018 12.5801C39.8678 12.5801 39.1782 12.2755 38.7329 11.6663C38.2876 11.057 38.0495 10.2484 38.0186 9.24023H45.3013C45.3013 8.23828 45.2518 7.50846 45.1528 7.05078C45.0415 6.38281 44.8188 5.79834 44.4849 5.29736C44.1385 4.77165 43.6344 4.34334 42.9727 4.01245C42.3109 3.68156 41.6274 3.51611 40.9224 3.51611C39.5246 3.51611 38.3927 4.014 37.5269 5.00977C36.661 6.00553 36.228 7.30127 36.228 8.89697C36.228 10.5174 36.6579 11.7776 37.5176 12.6775C38.3773 13.5774 39.4256 14.0273 40.6626 14.0273ZM43.585 7.91357H38.0649C38.0959 7.06006 38.3711 6.35653 38.8906 5.80298C39.4102 5.24943 40.0534 4.97266 40.8203 4.97266C41.8903 4.97266 42.6541 5.37467 43.1118 6.17871C43.3592 6.61165 43.5169 7.18994 43.585 7.91357ZM49.0679 13.6748V7.95996C49.0679 7.25488 49.2936 6.63175 49.7451 6.09058C50.1966 5.5494 50.8429 5.27881 51.6841 5.27881C51.783 5.27881 51.8743 5.2819 51.9578 5.28809C52.0413 5.29427 52.1325 5.30664 52.2314 5.3252V3.5625C52.0521 3.54395 51.9253 3.53158 51.8511 3.52539C51.7769 3.51921 51.7243 3.51611 51.6934 3.51611C51.0316 3.51611 50.4471 3.75578 49.9399 4.23511C49.4328 4.71444 49.1143 5.12109 48.9844 5.45508V3.73877H47.3979V13.6748H49.0679ZM55.3486 13.6748V8.47021C55.3486 7.8208 55.3904 7.32137 55.4739 6.97192C55.5574 6.62248 55.7383 6.28385 56.0166 5.95605C56.363 5.54785 56.765 5.27572 57.2227 5.13965C57.4762 5.05924 57.8009 5.01904 58.1968 5.01904C58.9761 5.01904 59.5142 5.32829 59.811 5.94678C59.9904 6.31787 60.0801 6.80648 60.0801 7.4126V13.6748H61.7778V7.30127C61.7778 6.29932 61.6418 5.5293 61.3696 4.99121C60.8748 4.00781 59.9224 3.51611 58.5122 3.51611C57.869 3.51611 57.2845 3.6429 56.7588 3.89648C56.2331 4.15007 55.7352 4.56755 55.2651 5.14893V3.73877H53.6787V13.6748H55.3486ZM68.1235 14.0273C68.6307 14.0273 69.0853 13.9779 69.4873 13.8789C70.2357 13.7057 70.8634 13.3717 71.3706 12.877C71.6737 12.5924 71.9473 12.226 72.1917 11.7776C72.436 11.3292 72.5798 10.9225 72.623 10.5576H70.981C70.8573 10.9967 70.647 11.3833 70.3501 11.7173C69.8306 12.2925 69.1348 12.5801 68.2627 12.5801C67.3288 12.5801 66.6392 12.2755 66.1938 11.6663C65.7485 11.057 65.5104 10.2484 65.4795 9.24023H72.7622C72.7622 8.23828 72.7127 7.50846 72.6138 7.05078C72.5024 6.38281 72.2798 5.79834 71.9458 5.29736C71.5994 4.77165 71.0954 4.34334 70.4336 4.01245C69.7718 3.68156 69.0884 3.51611 68.3833 3.51611C66.9855 3.51611 65.8537 4.014 64.9878 5.00977C64.1219 6.00553 63.689 7.30127 63.689 8.89697C63.689 10.5174 64.1188 11.7776 64.9785 12.6775C65.8382 13.5774 66.8866 14.0273 68.1235 14.0273ZM71.0459 7.91357H65.5259C65.5568 7.06006 65.832 6.35653 66.3516 5.80298C66.8711 5.24943 67.5143 4.97266 68.2812 4.97266C69.3512 4.97266 70.1151 5.37467 70.5728 6.17871C70.8201 6.61165 70.9779 7.18994 71.0459 7.91357Z" fill="var(--fill-0, white)"/>
</svg>
